Genre:Action | Adventure
Language:English  http://www.imdb.com/title/tt1446072/
Source:DVDScr Thx.


Format : MPEG-4
Format profile : Base Media
Codec ID : isom
File size : 662 MiB
Duration : 1h 22mn
Overall bit rate : 1 123 Kbps


Video
Codec ID : avc1
Codec ID/Info : Advanced Video Coding
Duration : 1h 22mn
Bit rate mode : Variable
Bit rate : 965 Kbps
Width : 720 pixels
Height : 304 pixels
Display aspect ratio : 2.35:1
Frame rate mode : Constant
Frame rate : 23.976 fps
Original frame rate : 23.000 fps
Color space : YUV
Chroma subsampling : 4:2:0
Bit depth : 8 bits
Scan type : Progressive
Bits/(Pixel*Frame) : 0.184
Stream size : 568 MiB (86%)


Audio
ID : 1
Format : AAC
Format/Info : Advanced Audio Codec
Format version : Version 4
Format profile : LC
Codec ID : 40
Duration : 1h 22mn
Bit rate mode : Constant
Bit rate : 153 Kbps
Channel(s) : 2 channels
Channel positions : Front: L R
Sampling rate : 48.0 KHz
Stream size : 90.2 MiB (14%)
Language : English


Plot:
Secret Ops agent Marcus is sent to Detroit to take out an arms dealer and the head of the hedge fund that is financing him. His CIA backup has other plans and turns on him and it's a fight to survive in a hospital.
 
http://www.rapidhdd.com/images/137999vlcsnap-2010-12-11-07h08m42s192.png 
http://www.rapidhdd.com/images/140132vlcsnap-2010-12-11-07h08m48s252.png 
http://www.rapidhdd.com/images/26957vlcsnap-2010-12-11-07h09m04s158.png